STARTFONT 2.1
FONT -MIT-33FRI KST-Medium-R-Normal--33-11-200-200-P-23-ISO8859-1
SIZE 11 200 200
FONTBOUNDINGBOX 24 33 -11 -9
STARTPROPERTIES 17
ADD_STYLE_NAME ""
AVERAGE_WIDTH 23
CHARSET_ENCODING "1"
CHARSET_REGISTRY "ISO8859"
DEFAULT_CHAR 0
FAMILY "33FRI KST"
FONT_ASCENT 24
FONT_DESCENT 9
FOUNDRY "MIT"
PIXEL_SIZE 33
POINT_SIZE 11
RESOLUTION_X 200
RESOLUTION_Y 200
SETWIDTH_NAME "Normal"
SLANT "R"
SPACING "P"
WEIGHT_NAME "Medium"
ENDPROPERTIES
CHARS 125
STARTCHAR char1
ENCODING 1
SWIDTH 2070 0
DWIDTH 23 0
BBX 20 33 1 -9
BITMAP
000000
003C00
003C00
003C00
003C00
003800
003800
007800
007800
007800
007800
007800
00F800
00F000
F0F0F0
78F1E0
3CF3C0
3DF780
1FFE00
0FFC00
07F800
03F000
01E000
000000
000000
000000
000000
000000
000000
000000
000000
000000
000000
ENDCHAR
STARTCHAR char2
ENCODING 2
SWIDTH 2070 0
DWIDTH 23 0
BBX 19 33 1 -9
BITMAP
000000
000000
000000
000000
000000
000000
000000
000000
000000
000000
000000
000020
0FE060
3FF0E0
7839C0
701DC0
F01F80
F01F00
F01E00
F03E00
F07E00
7FE700
1FC380
000000
000000
000000
000000
000000
000000
000000
000000
000000
000000
ENDCHAR
STARTCHAR char3
ENCODING 3
SWIDTH 2070 0
DWIDTH 23 0
BBX 19 33 0 -9
BITMAP
000000
000000
000000
000000
000000
000000
01FF00
03FFC0
0781E0
0700E0
0E01C0
0E01C0
1E0700
1FFE00
3FFE00
380F80
3803C0
3803E0
7801E0
7801C0
7F03C0
EFFF80
C0FF00
C00000
000000
000000
000000
000000
000000
000000
000000
000000
000000
ENDCHAR
STARTCHAR char4
ENCODING 4
SWIDTH 2070 0
DWIDTH 23 0
BBX 19 33 1 -9
BITMAP
000000
000000
000000
000000
000000
000000
000000
000000
003000
007800
00FC00
01FE00
079E00
0F0F00
1E0780
3C03C0
7801E0
F000E0
C000E0
000000
000000
000000
000000
000000
000000
000000
000000
000000
000000
000000
000000
000000
000000
ENDCHAR
STARTCHAR char5
ENCODING 5
SWIDTH 2070 0
DWIDTH 23 0
BBX 16 33 3 -9
BITMAP
0000
0000
0000
0000
0000
0000
0000
0000
0000
0000
FFFF
FFFF
000F
000F
000F
0000
0000
0000
0000
0000
0000
0000
0000
0000
0000
0000
0000
0000
0000
0000
0000
0000
0000
ENDCHAR
STARTCHAR char6
ENCODING 6
SWIDTH 2070 0
DWIDTH 23 0
BBX 18 33 2 -9
BITMAP
000000
000000
000000
000000
000000
000000
01FF80
07FFC0
0FC000
3C0000
780000
700000
F00000
FFF000
FFF000
F00000
E00000
F00000
780000
3F0000
3FFC00
0FFE00
000000
000000
000000
000000
000000
000000
000000
000000
000000
000000
000000
ENDCHAR
STARTCHAR char7
ENCODING 7
SWIDTH 2070 0
DWIDTH 23 0
BBX 20 33 1 -9
BITMAP
000000
000000
000000
000000
000000
000000
0F8000
3FE030
77FFF0
077FC0
0E0E00
0E0F00
1C0F00
1C0F00
380F00
380F00
700F00
700700
700700
E00700
E00700
C00700
000000
000000
000000
000000
000000
000000
000000
000000
000000
000000
000000
ENDCHAR
STARTCHAR char8
ENCODING 8
SWIDTH 2070 0
DWIDTH 23 0
BBX 19 33 0 -9
BITMAP
000000
1C0000
0F0000
078000
078000
03C000
01E000
00F000
007800
007800
007800
007800
00F800
01FC00
01FC00
03FC00
079C00
0F1E00
1E1E00
3C0F00
380780
7003C0
E001E0
000000
000000
000000
000000
000000
000000
000000
000000
000000
000000
ENDCHAR
STARTCHAR char9
ENCODING 9
SWIDTH 2070 0
DWIDTH 23 0
BBX 19 33 2 -9
BITMAP
000000
000000
000000
000000
000000
000000
000000
000000
800060
C003E0
F00F80
381E00
0E3C00
07F800
03F000
03E000
03E000
07C000
07E000
06C000
06C000
07C000
078000
000000
000000
000000
000000
000000
000000
000000
000000
000000
000000
ENDCHAR
STARTCHAR char10
ENCODING 10
SWIDTH 2070 0
DWIDTH 23 0
BBX 21 33 1 -9
BITMAP
000000
000000
000000
000000
000000
001FF8
007FF8
007000
007000
03FF00
0FFFC0
3E07C0
7801E0
7000E0
F000F0
F001E0
F001E0
7003C0
7C0F80
3FFF00
0FFC00
000000
000000
000000
000000
000000
000000
000000
000000
000000
000000
000000
000000
ENDCHAR
STARTCHAR char11
ENCODING 11
SWIDTH 2070 0
DWIDTH 23 0
BBX 19 33 2 -9
BITMAP
000000
007800
00FC00
01FE00
07FE00
0FFF00
1EF780
3CF3C0
78F1E0
F1F0E0
C1F0E0
01E000
01E000
01E000
01E000
01E000
01C000
03C000
03C000
03C000
03C000
03C000
038000
000000
000000
000000
000000
000000
000000
000000
000000
000000
000000
ENDCHAR
STARTCHAR char12
ENCODING 12
SWIDTH 2070 0
DWIDTH 23 0
BBX 22 33 0 -9
BITMAP
000000
000000
000000
001E00
001E00
001E00
003C00
003C00
003C00
3FFFFC
3FFFF8
007C00
007C00
007800
007800
007800
007800
000000
000000
7FFFF0
FFFFF0
000000
000000
000000
000000
000000
000000
000000
000000
000000
000000
000000
000000
ENDCHAR
STARTCHAR char13
ENCODING 13
SWIDTH 2070 0
DWIDTH 23 0
BBX 20 33 1 -9
BITMAP
000000
000000
000000
000000
000000
01FE00
07FF80
0FB7C0
1E31E0
3870F0
707070
607030
607030
FFFFF0
FFFFF0
C0E070
C0E070
E0E0E0
F0E3C0
78C780
3EDF00
1FFE00
07F800
000000
000000
000000
000000
000000
000000
000000
000000
000000
000000
ENDCHAR
STARTCHAR char14
ENCODING 14
SWIDTH 2070 0
DWIDTH 23 0
BBX 20 33 1 -9
BITMAP
000000
000000
000000
000000
000000
000000
000000
000000
000000
000000
0F03C0
3F8FE0
71F8F0
E0F070
E0F070
E0F070
F1F8E0
FFBFE0
3C0F00
000000
000000
000000
000000
000000
000000
000000
000000
000000
000000
000000
000000
000000
000000
ENDCHAR
STARTCHAR char15
ENCODING 15
SWIDTH 2070 0
DWIDTH 23 0
BBX 17 33 1 -9
BITMAP
000000
000000
000000
000000
000000
000000
000000
03F800
0FFE00
1E0E00
3C0F00
200700
000700
07F780
1FFF80
3E1F80
781F00
780F00
F00E00
F01E00
7C3C00
3FF800
1FE000
000000
000000
000000
000000
000000
000000
000000
000000
000000
000000
ENDCHAR
STARTCHAR char16
ENCODING 16
SWIDTH 2070 0
DWIDTH 23 0
BBX 21 33 1 -9
BITMAP
000000
000000
000000
000000
000000
000000
01FFF8
0FFFF8
1FC000
3C0000
780000
780000
780000
F00000
F00000
F00000
F00000
700000
7F0000
3FFFE0
07FFE0
000000
000000
000000
000000
000000
000000
000000
000000
000000
000000
000000
000000
ENDCHAR
STARTCHAR char17
ENCODING 17
SWIDTH 2070 0
DWIDTH 23 0
BBX 20 33 1 -9
BITMAP
000000
000000
000000
000000
000000
000000
3FFF80
3FFFC0
000FE0
000070
000070
0000F0
0000F0
0000F0
0000F0
0000F0
0000E0
0001E0
001FC0
FFFF00
FFFC00
000000
000000
000000
000000
000000
000000
000000
000000
000000
000000
000000
000000
ENDCHAR
STARTCHAR char18
ENCODING 18
SWIDTH 2070 0
DWIDTH 23 0
BBX 19 33 2 -9
BITMAP
000000
000000
000000
000000
000000
000000
01FE00
0FFF80
1E03C0
3C01E0
3C01E0
7801E0
7801E0
7001E0
F001E0
F001E0
F001E0
F001C0
E001C0
E001C0
000000
000000
000000
000000
000000
000000
000000
000000
000000
000000
000000
000000
000000
ENDCHAR
STARTCHAR char19
ENCODING 19
SWIDTH 2070 0
DWIDTH 23 0
BBX 20 33 2 -9
BITMAP
000000
000000
000000
000000
000000
000000
000000
7800F0
7800F0
7800E0
7800E0
7801E0
7001E0
F001E0
F001E0
7803C0
780780
780F00
3FFE00
0FF800
000000
000000
000000
000000
000000
000000
000000
000000
000000
000000
000000
000000
000000
ENDCHAR
STARTCHAR char20
ENCODING 20
SWIDTH 2160 0
DWIDTH 24 0
BBX 20 33 3 -9
BITMAP
000000
FC03F0
7801E0
7803E0
7803C0
780380
780780
380700
3FFF00
3FFF00
3C1E00
3C1C00
3C3C00
1C3800
1E7800
1E7000
1EF000
0FF000
0FC000
0FC000
078000
078000
070000
000000
000000
000000
000000
000000
000000
000000
000000
000000
000000
ENDCHAR
STARTCHAR char21
ENCODING 21
SWIDTH 2070 0
DWIDTH 23 0
BBX 22 33 0 -9
BITMAP
000000
1FFFFC
1FFFFC
10003C
00003C
00003C
00003C
00003C
000078
000078
000078
01FFF8
01FFF8
0100F8
0000F8
0000F0
0000F0
0000F0
0000F0
8000F0
C001F0
FFFFF0
FFFFE0
000000
000000
000000
000000
000000
000000
000000
000000
000000
000000
ENDCHAR
STARTCHAR char22
ENCODING 22
SWIDTH 2070 0
DWIDTH 23 0
BBX 20 33 1 -9
BITMAP
000000
000000
000000
000000
000000
01FE00
07FF80
0F87C0
1E01E0
3F03F0
738770
639C30
61F830
C0F030
C0F030
C1F830
C39C60
EE1CE0
FC0FE0
780780
3E1F00
1FFE00
07F800
000000
000000
000000
000000
000000
000000
000000
000000
000000
000000
ENDCHAR
STARTCHAR char23
ENCODING 23
SWIDTH 2070 0
DWIDTH 23 0
BBX 20 33 2 -9
BITMAP
000000
000000
000000
000000
000000
078700
0F0780
1E03C0
3C01E0
7801F0
FFFFF0
FFFFF0
F801E0
7803C0
3C0780
1E0F00
0E1E00
000000
000000
000000
000000
000000
000000
000000
000000
000000
000000
000000
000000
000000
000000
000000
000000
ENDCHAR
STARTCHAR char24
ENCODING 24
SWIDTH 2070 0
DWIDTH 23 0
BBX 19 33 2 -9
BITMAP
000000
000000
000000
000000
01C000
078000
0F0000
1E0000
3C0000
780000
FFFFE0
FFFFE0
F80000
780000
3C0000
1E0000
0F0000
0F0000
000000
000000
000000
000000
000000
000000
000000
000000
000000
000000
000000
000000
000000
000000
000000
ENDCHAR
STARTCHAR char25
ENCODING 25
SWIDTH 2070 0
DWIDTH 23 0
BBX 18 33 2 -9
BITMAP
000000
000000
000000
000000
003C00
003C00
001E00
000F00
000780
0007C0
FFFFC0
FFFFC0
000780
000F00
001E00
003C00
007800
00E000
000000
000000
000000
000000
000000
000000
000000
000000
000000
000000
000000
000000
000000
000000
000000
ENDCHAR
STARTCHAR char26
ENCODING 26
SWIDTH 2160 0
DWIDTH 24 0
BBX 22 33 1 -9
BITMAP
000000
000000
000000
00003C
000078
0000F0
0003E0
1FFFF8
3FFFF8
000F00
001E00
003C00
00F000
01E000
03C000
7FFFF0
7FFFE0
1F0000
3C0000
780000
F00000
000000
000000
000000
000000
000000
000000
000000
000000
000000
000000
000000
000000
ENDCHAR
STARTCHAR char28
ENCODING 28
SWIDTH 2160 0
DWIDTH 24 0
BBX 23 33 0 -9
BITMAP
000000
000000
000000
000000
00000E
00007C
0003F8
003F80
01FC00
0FE000
3F0000
3F0000
1FC000
03F800
007F00
000FE0
0001F8
000030
000000
7FFFF0
FFFFF0
000000
000000
000000
000000
000000
000000
000000
000000
000000
000000
000000
000000
ENDCHAR
STARTCHAR char29
ENCODING 29
SWIDTH 2070 0
DWIDTH 23 0
BBX 22 33 0 -9
BITMAP
000000
000000
000000
000000
1C0000
1F8000
0FE000
01FC00
003F80
0007F0
0000FC
0001F8
0007F0
007F00
03F800
1FC000
7E0000
700000
000000
7FFFF0
FFFFF0
000000
000000
000000
000000
000000
000000
000000
000000
000000
000000
000000
000000
ENDCHAR
STARTCHAR char30
ENCODING 30
SWIDTH 2160 0
DWIDTH 24 0
BBX 22 33 1 -9
BITMAP
000000
000000
000000
1FFFFC
1FFFF8
000000
000000
000000
000000
000000
000000
3FFFF0
3FFFF0
000000
000000
000000
000000
000000
000000
7FFFE0
FFFFE0
000000
000000
000000
000000
000000
000000
000000
000000
000000
000000
000000
000000
ENDCHAR
STARTCHAR char31
ENCODING 31
SWIDTH 2070 0
DWIDTH 23 0
BBX 19 33 2 -9
BITMAP
000000
000000
000000
000000
000000
000000
000000
000000
E00060
E001E0
F003C0
780780
3C0F00
1E1E00
0F3C00
0FF000
07E000
03C000
018000
000000
000000
000000
000000
000000
000000
000000
000000
000000
000000
000000
000000
000000
000000
ENDCHAR
STARTCHAR char32
ENCODING 32
SWIDTH 1980 0
DWIDTH 22 0
BBX 1 33 0 -9
BITMAP
00
00
00
00
00
00
00
00
00
00
00
00
00
00
00
00
00
00
00
00
00
00
00
00
00
00
00
00
00
00
00
00
00
ENDCHAR
STARTCHAR char33
ENCODING 33
SWIDTH 2070 0
DWIDTH 23 0
BBX 6 33 8 -9
BITMAP
00
00
0C
1C
1C
3C
3C
3C
38
38
38
38
78
78
78
70
20
00
00
60
E0
E0
C0
00
00
00
00
00
00
00
00
00
00
ENDCHAR
STARTCHAR char34
ENCODING 34
SWIDTH 2070 0
DWIDTH 23 0
BBX 11 33 7 -9
BITMAP
0000
0000
6060
E0E0
E0E0
E0E0
C0C0
C0C0
C0C0
0000
0000
0000
0000
0000
0000
0000
0000
0000
0000
0000
0000
0000
0000
0000
0000
0000
0000
0000
0000
0000
0000
0000
0000
ENDCHAR
STARTCHAR char35
ENCODING 35
SWIDTH 2070 0
DWIDTH 23 0
BBX 21 33 1 -9
BITMAP
000000
00E038
00E038
00E038
01C070
03C0F0
3FFFF8
3FFFF8
0701C0
0701C0
0F03C0
0E0380
0E0380
1E0780
1C0700
1C0700
FFFFE0
FFFFE0
781E00
701C00
E03800
E03800
E03800
000000
000000
000000
000000
000000
000000
000000
000000
000000
000000
ENDCHAR
STARTCHAR char36
ENCODING 36
SWIDTH 2070 0
DWIDTH 23 0
BBX 21 33 0 -9
BITMAP
006300
00FFE0
03FFF8
0FE7F8
1EE778
3CC638
3CC600
3DC600
3DCE00
3DCE00
3FCE00
0FFE00
03FF80
039FE0
039DE0
039DE0
039DE0
8319E0
C319E0
F31BE0
FF3FC0
FFFF00
1FFC00
063000
000000
000000
000000
000000
000000
000000
000000
000000
000000
ENDCHAR
STARTCHAR char37
ENCODING 37
SWIDTH 2070 0
DWIDTH 23 0
BBX 22 33 0 -9
BITMAP
000000
000000
0F001C
1F003C
1B00F0
3301E0
3F01E0
1E03C0
000780
000F00
001E00
003C00
007800
00F000
01E000
03C000
078000
0F01E0
1E03F0
1E0330
3C0360
7803E0
E003C0
000000
000000
000000
000000
000000
000000
000000
000000
000000
000000
ENDCHAR
STARTCHAR char38
ENCODING 38
SWIDTH 2070 0
DWIDTH 23 0
BBX 21 33 0 -9
BITMAP
000000
007E00
00FF00
00E700
00E700
00E700
00EE00
00EE00
007C00
00FC00
00FC00
01FC00
03DC00
079E00
0F0F08
1E0F10
3C07B0
7807E0
7803C0
F007C0
780FE0
3FFEE0
0FF860
000000
000000
000000
000000
000000
000000
000000
000000
000000
000000
ENDCHAR
STARTCHAR char39
ENCODING 39
SWIDTH 2070 0
DWIDTH 23 0
BBX 7 33 9 -9
BITMAP
00
00
1C
3E
3C
3C
70
E0
00
00
00
00
00
00
00
00
00
00
00
00
00
00
00
00
00
00
00
00
00
00
00
00
00
ENDCHAR
STARTCHAR char40
ENCODING 40
SWIDTH 2070 0
DWIDTH 23 0
BBX 11 33 6 -9
BITMAP
0000
0000
01E0
03C0
0780
0F00
1E00
3C00
3C00
3C00
7800
7800
7800
F000
F000
7800
7800
7800
7800
7800
3C00
1E00
0E00
0000
0000
0000
0000
0000
0000
0000
0000
0000
0000
ENDCHAR
STARTCHAR char41
ENCODING 41
SWIDTH 2070 0
DWIDTH 23 0
BBX 10 33 8 -9
BITMAP
0000
0000
1E00
0F00
0F00
0780
0780
03C0
03C0
03C0
03C0
03C0
03C0
03C0
03C0
0780
0780
0F00
1E00
1E00
3C00
7800
F000
0000
0000
0000
0000
0000
0000
0000
0000
0000
0000
ENDCHAR
STARTCHAR char42
ENCODING 42
SWIDTH 2070 0
DWIDTH 23 0
BBX 18 33 2 -9
BITMAP
000000
000000
002000
007000
1C7180
1CF780
1EFF00
0FFE00
07FC00
07F800
FFFFC0
FFFFC0
07F800
0FF800
1FFC00
3DDE00
79CE00
618E00
018000
010000
000000
000000
000000
000000
000000
000000
000000
000000
000000
000000
000000
000000
000000
ENDCHAR
STARTCHAR char43
ENCODING 43
SWIDTH 2070 0
DWIDTH 23 0
BBX 19 33 2 -9
BITMAP
000000
000000
000000
000000
007800
007800
007000
00F000
00F000
00F000
00F000
00F000
FFFFE0
FFFFE0
01F000
01E000
01E000
01E000
01E000
01C000
01C000
03C000
000000
000000
000000
000000
000000
000000
000000
000000
000000
000000
000000
ENDCHAR
STARTCHAR char44
ENCODING 44
SWIDTH 2070 0
DWIDTH 23 0
BBX 7 33 4 -9
BITMAP
00
00
00
00
00
00
00
00
00
00
00
00
00
00
00
00
00
00
1C
3E
3C
3C
78
F0
00
00
00
00
00
00
00
00
00
ENDCHAR
STARTCHAR char45
ENCODING 45
SWIDTH 2070 0
DWIDTH 23 0
BBX 16 33 3 -9
BITMAP
0000
0000
0000
0000
0000
0000
0000
0000
0000
0000
0000
FFFF
FFFF
0000
0000
0000
0000
0000
0000
0000
0000
0000
0000
0000
0000
0000
0000
0000
0000
0000
0000
0000
0000
ENDCHAR
STARTCHAR char46
ENCODING 46
SWIDTH 2070 0
DWIDTH 23 0
BBX 4 33 6 -9
BITMAP
00
00
00
00
00
00
00
00
00
00
00
00
00
00
00
00
00
00
00
70
F0
F0
E0
00
00
00
00
00
00
00
00
00
00
ENDCHAR
STARTCHAR char47
ENCODING 47
SWIDTH 2070 0
DWIDTH 23 0
BBX 22 33 0 -9
BITMAP
000000
000000
00001C
00003C
0000F0
0001E0
0001E0
0003C0
000780
000F00
001E00
003C00
007800
00F000
01E000
03C000
078000
0F0000
1E0000
1E0000
3C0000
780000
E00000
000000
000000
000000
000000
000000
000000
000000
000000
000000
000000
ENDCHAR
STARTCHAR char48
ENCODING 48
SWIDTH 2070 0
DWIDTH 23 0
BBX 21 33 1 -9
BITMAP
000000
007F38
01FFF8
0783F0
0F01F0
0E03E0
1E03F0
1E07F0
3C0EF0
3C1CF0
3C38F0
7870F0
7870F0
78E0F0
79C1E0
7B81E0
7F03C0
7E03C0
3E0380
7C0780
7E0F00
FFFC00
C7F000
000000
000000
000000
000000
000000
000000
000000
000000
000000
000000
ENDCHAR
STARTCHAR char49
ENCODING 49
SWIDTH 2070 0
DWIDTH 23 0
BBX 8 33 8 -9
BITMAP
00
07
0F
3F
3F
0F
0F
1F
1F
1E
1E
1E
1E
1E
3E
3E
3E
3C
3C
3C
7C
7C
FE
00
00
00
00
00
00
00
00
00
00
ENDCHAR
STARTCHAR char50
ENCODING 50
SWIDTH 2070 0
DWIDTH 23 0
BBX 22 33 0 -9
BITMAP
000000
007FC0
03FFF8
07E0FC
0F803C
1C003C
18003C
30003C
200078
0000F0
0001E0
000F80
001F00
003C00
00F800
01F000
03E000
1F0000
3E0000
780000
F00010
FFFFF0
FFFFE0
000000
000000
000000
000000
000000
000000
000000
000000
000000
000000
ENDCHAR
STARTCHAR char51
ENCODING 51
SWIDTH 2160 0
DWIDTH 24 0
BBX 23 33 0 -9
BITMAP
000000
1FFFFE
1FFFFC
1000FC
0001E0
0003C0
000780
000F00
001E00
003C00
007E00
007FC0
0007E0
0001F0
0000F0
0000F0
0000F0
7000F0
F001E0
7803E0
3C07C0
1FFF80
0FFC00
000000
000000
000000
000000
000000
000000
000000
000000
000000
000000
ENDCHAR
STARTCHAR char52
ENCODING 52
SWIDTH 2070 0
DWIDTH 23 0
BBX 19 33 1 -9
BITMAP
000000
000780
000F80
001F00
003F00
007F00
00FF00
01EF00
03DF00
079F00
0F1F00
1E1F00
3C1E00
781E00
F01E00
FFFFE0
FFFFE0
003E00
003C00
003C00
007C00
007C00
00FE00
000000
000000
000000
000000
000000
000000
000000
000000
000000
000000
ENDCHAR
STARTCHAR char53
ENCODING 53
SWIDTH 2160 0
DWIDTH 24 0
BBX 23 33 0 -9
BITMAP
000000
1FFFFE
1FFFFC
1E0000
1E0000
1E0000
3C0000
3C0000
3C0000
3C0000
3FFE00
3FFFC0
000FE0
0001F0
0000F0
0000F0
0000F0
7000F0
F001E0
7803E0
3C07C0
1FFF80
0FFC00
000000
000000
000000
000000
000000
000000
000000
000000
000000
000000
ENDCHAR
STARTCHAR char54
ENCODING 54
SWIDTH 2160 0
DWIDTH 24 0
BBX 22 33 1 -9
BITMAP
000000
003FC0
01FFF8
03E07C
07801C
0F001C
1E0000
3C0000
780000
780000
780000
78FE00
7FFFC0
FF07E0
FC00F0
F80078
F000F0
F000F0
F000F0
F001E0
7C07C0
3FFF80
07FC00
000000
000000
000000
000000
000000
000000
000000
000000
000000
000000
ENDCHAR
STARTCHAR char55
ENCODING 55
SWIDTH 2070 0
DWIDTH 23 0
BBX 22 33 0 -9
BITMAP
000000
1FFFFC
1FFFFC
000078
0000F0
0001E0
0003C0
0003C0
000780
001E00
003C00
003C00
007800
00F000
01E000
03C000
078000
0F0000
1E0000
1E0000
3C0000
F00000
E00000
000000
000000
000000
000000
000000
000000
000000
000000
000000
000000
ENDCHAR
STARTCHAR char56
ENCODING 56
SWIDTH 2160 0
DWIDTH 24 0
BBX 22 33 1 -9
BITMAP
000000
000000
00FF80
07FFF0
0F80F8
1F007C
3E007C
3E007C
3E007C
3E00F8
1F01F0
0FFFE0
07FF80
1FFFC0
3E03E0
7C01F0
F800F8
F801F0
F801F0
F801F0
F803E0
7C07C0
3FFF80
07FC00
000000
000000
000000
000000
000000
000000
000000
000000
000000
ENDCHAR
STARTCHAR char57
ENCODING 57
SWIDTH 2070 0
DWIDTH 23 0
BBX 21 33 1 -9
BITMAP
000000
000000
01FF80
07FFE0
0F81F0
1E00F0
3C0078
780078
780078
780078
3C00F0
3E03F0
1FFFF0
03FCF0
0000F0
0000F0
0001E0
0003C0
000780
001F00
01FE00
3FF000
FF0000
000000
000000
000000
000000
000000
000000
000000
000000
000000
000000
ENDCHAR
STARTCHAR char58
ENCODING 58
SWIDTH 2070 0
DWIDTH 23 0
BBX 6 33 6 -9
BITMAP
00
00
00
00
00
00
00
00
00
1C
3C
3C
38
00
00
00
00
00
00
70
F0
F0
E0
00
00
00
00
00
00
00
00
00
00
ENDCHAR
STARTCHAR char59
ENCODING 59
SWIDTH 2070 0
DWIDTH 23 0
BBX 7 33 5 -9
BITMAP
00
00
00
00
00
00
00
00
00
0E
1E
1E
1C
00
00
00
00
00
38
7C
7C
78
78
E0
00
00
00
00
00
00
00
00
00
ENDCHAR
STARTCHAR char60
ENCODING 60
SWIDTH 2070 0
DWIDTH 23 0
BBX 20 33 2 -9
BITMAP
000000
000000
000000
0000F0
0003E0
001F00
007C00
01F000
07C000
1F0000
7C0000
F00000
F80000
3E0000
0F8000
03E000
01F000
007C00
001F00
0007C0
000000
000000
000000
000000
000000
000000
000000
000000
000000
000000
000000
000000
000000
ENDCHAR
STARTCHAR char61
ENCODING 61
SWIDTH 2070 0
DWIDTH 23 0
BBX 19 33 2 -9
BITMAP
000000
000000
000000
000000
000000
000000
000000
7FFFE0
7FFFE0
000000
000000
000000
000000
000000
000000
FFFFC0
FFFFC0
000000
000000
000000
000000
000000
000000
000000
000000
000000
000000
000000
000000
000000
000000
000000
000000
ENDCHAR
STARTCHAR char62
ENCODING 62
SWIDTH 2070 0
DWIDTH 23 0
BBX 20 33 1 -9
BITMAP
000000
000000
000000
3E0000
0F8000
03E000
01F000
007C00
001F00
0007C0
0001F0
0000F0
0001F0
000F80
003E00
00F800
03E000
0F8000
3E0000
F00000
000000
000000
000000
000000
000000
000000
000000
000000
000000
000000
000000
000000
000000
ENDCHAR
STARTCHAR char63
ENCODING 63
SWIDTH 2070 0
DWIDTH 23 0
BBX 16 33 5 -9
BITMAP
0000
0FF8
3FFE
7C1F
F00F
C00F
000F
000F
001E
003C
0078
01E0
03C0
0780
0780
0780
0700
0000
0000
0F00
1F80
1F00
0F00
0000
0000
0000
0000
0000
0000
0000
0000
0000
0000
ENDCHAR
STARTCHAR char64
ENCODING 64
SWIDTH 2070 0
DWIDTH 23 0
BBX 21 33 1 -9
BITMAP
000000
000000
00FF00
03FFC0
0781E0
1E01E0
3C00F0
3800F0
787878
78FCF0
79DCF0
79DCF0
FB9CF0
F39CF0
F39CF0
F3BDE0
F3BDE0
F3BDE0
F3FDC0
E3FFC0
F0EF80
780700
3F8000
3FF000
000000
000000
000000
000000
000000
000000
000000
000000
000000
ENDCHAR
STARTCHAR char65
ENCODING 65
SWIDTH 2070 0
DWIDTH 23 0
BBX 19 33 0 -9
BITMAP
000000
003F00
001E00
003E00
003E00
003E00
007E00
007E00
00FF00
00EF00
01EF00
01C700
038700
03FF00
07FF80
070780
0F0780
0E0380
1C0380
1C0380
3C03C0
7803C0
FC07E0
000000
000000
000000
000000
000000
000000
000000
000000
000000
000000
ENDCHAR
STARTCHAR char66
ENCODING 66
SWIDTH 2070 0
DWIDTH 23 0
BBX 22 33 0 -9
BITMAP
000000
1FFFE0
07FFF8
0F807C
0F803C
0F803C
0F803C
0F003C
0F0038
0F0078
1F00F0
1FFFC0
1FFFC0
1E01E0
1E00F0
1E00F0
3E00F0
3E00F0
3E00F0
3C01E0
3C03E0
3FFFC0
FFFF00
000000
000000
000000
000000
000000
000000
000000
000000
000000
000000
ENDCHAR
STARTCHAR char67
ENCODING 67
SWIDTH 2070 0
DWIDTH 23 0
BBX 21 33 1 -9
BITMAP
000000
00FF80
03FFE0
0780F0
0F0078
1E0078
3C0078
3C00F8
780000
780000
780000
780000
F80000
F00000
F00000
F00000
F000E0
F001E0
F001E0
7803C0
3C0780
1FFF00
07FC00
000000
000000
000000
000000
000000
000000
000000
000000
000000
000000
ENDCHAR
STARTCHAR char68
ENCODING 68
SWIDTH 2070 0
DWIDTH 23 0
BBX 22 33 0 -9
BITMAP
000000
1FFF00
0FFFC0
0F8FE0
0F83F0
0F00F8
0F007C
0F003C
1F003C
1F003C
1F003C
1F003C
1E003C
1E003C
1E0078
3E0078
3E0078
3E00F0
3C01E0
3C03C0
3C0F80
7FFE00
FFF000
000000
000000
000000
000000
000000
000000
000000
000000
000000
000000
ENDCHAR
STARTCHAR char69
ENCODING 69
SWIDTH 2160 0
DWIDTH 24 0
BBX 23 33 0 -9
BITMAP
000000
1FFFFE
0FFFFE
0F8006
0F8002
0F0000
0F0000
0F0000
1F0000
1F0000
1F0080
1FFF80
1FFF80
1E0080
3E0000
3E0000
3E0000
3C0000
3C0000
3C0000
7C0010
7FFFF0
FFFFF0
000000
000000
000000
000000
000000
000000
000000
000000
000000
000000
ENDCHAR
STARTCHAR char70
ENCODING 70
SWIDTH 2160 0
DWIDTH 24 0
BBX 23 33 0 -9
BITMAP
000000
1FFFFE
0FFFFE
0F8006
0F8002
0F0000
0F0000
0F0000
1F0000
1F0000
1F0080
1FFF80
1FFF80
1E0080
3E0000
3E0000
3E0000
3C0000
3C0000
3C0000
7C0000
7C0000
FE0000
000000
000000
000000
000000
000000
000000
000000
000000
000000
000000
ENDCHAR
STARTCHAR char71
ENCODING 71
SWIDTH 2070 0
DWIDTH 23 0
BBX 21 33 1 -9
BITMAP
000000
00FF80
03FFE0
0780F0
0F0078
1E0078
3C0078
3C0078
780000
780000
780000
780000
F80000
F03FF0
F03FF0
F021E0
F001E0
7001E0
7001E0
7803C0
3C0780
1FFF00
07FC00
000000
000000
000000
000000
000000
000000
000000
000000
000000
000000
ENDCHAR
STARTCHAR char72
ENCODING 72
SWIDTH 2160 0
DWIDTH 24 0
BBX 23 33 0 -9
BITMAP
000000
1FC0FE
0F807C
0F807C
0F807C
0F0078
0F0078
0F0078
1F00F8
1F00F8
1F00F8
1FFFF8
1FFFF0
1E01F0
3E01F0
3E01F0
3E01F0
3C01F0
3C01F0
3C01E0
7C03E0
7C03E0
FE07F0
000000
000000
000000
000000
000000
000000
000000
000000
000000
000000
ENDCHAR
STARTCHAR char73
ENCODING 73
SWIDTH 2070 0
DWIDTH 23 0
BBX 10 33 7 -9
BITMAP
0000
1FC0
0F80
0F80
0F80
0F00
0F00
0F00
1F00
1F00
1F00
1E00
1E00
1E00
3E00
3E00
3E00
3E00
3C00
3C00
7C00
7C00
FE00
0000
0000
0000
0000
0000
0000
0000
0000
0000
0000
ENDCHAR
STARTCHAR char74
ENCODING 74
SWIDTH 2250 0
DWIDTH 25 0
BBX 24 33 0 -9
BITMAP
000000
0000FF
00007C
00007C
00007C
000078
000078
000078
0000F8
0000F8
0000F0
0000F0
0000F0
0000F0
0000F0
7001E0
7801E0
F803E0
7803C0
7C07C0
3E0F80
3FFF00
0FF800
000000
000000
000000
000000
000000
000000
000000
000000
000000
000000
ENDCHAR
STARTCHAR char75
ENCODING 75
SWIDTH 2070 0
DWIDTH 23 0
BBX 22 33 0 -9
BITMAP
000000
1FC0FC
0F80F8
0F81E0
0F83C0
0F0780
0F0F00
0F1E00
1F3C00
1FF000
1FE000
1FC000
1FC000
1FE000
3EF000
3EF000
3E7800
3C3C00
3C1E00
3C0F00
7C0780
7C0780
FE07E0
000000
000000
000000
000000
000000
000000
000000
000000
000000
000000
ENDCHAR
STARTCHAR char76
ENCODING 76
SWIDTH 2070 0
DWIDTH 23 0
BBX 20 33 0 -9
BITMAP
000000
1FC000
0F8000
0F8000
0F8000
0F0000
0F0000
0F0000
1F0000
1F0000
1F0000
1E0000
1E0000
1E0000
3E0000
3E0000
3E0000
3E0000
3C0000
3C0000
7C0010
7FFFF0
FFFFF0
000000
000000
000000
000000
000000
000000
000000
000000
000000
000000
ENDCHAR
STARTCHAR char77
ENCODING 77
SWIDTH 2160 0
DWIDTH 24 0
BBX 23 33 0 -9
BITMAP
000000
1F803E
0F807C
0FC0FC
0FC1FC
0FC1F8
0FE3F8
0FE3F8
1FE7F8
1FFFF8
1FFFF8
1E7CF0
1E7CF0
1E38F0
3E31F0
3E31F0
3E21F0
3C01F0
3C01E0
3C01E0
7C03E0
7C03E0
FE07F0
000000
000000
000000
000000
000000
000000
000000
000000
000000
000000
ENDCHAR
STARTCHAR char78
ENCODING 78
SWIDTH 2160 0
DWIDTH 24 0
BBX 23 33 0 -9
BITMAP
000000
1F80FE
0F807C
0F807C
0F807C
0FC078
0FC078
0FE078
1FE0F8
1FF0F8
1FF0F8
1E78F0
1E38F0
1E3CF0
3E1DF0
3E1FF0
3E1FF0
3C0FF0
3C07F0
3C07E0
7C03E0
7C03E0
FE03F0
000000
000000
000000
000000
000000
000000
000000
000000
000000
000000
ENDCHAR
STARTCHAR char79
ENCODING 79
SWIDTH 2070 0
DWIDTH 23 0
BBX 19 33 2 -9
BITMAP
000000
000000
00FE00
03FF80
0F0780
1E03C0
1C01C0
3C01E0
3C01E0
7801E0
7801E0
7801E0
F001E0
F001E0
F001E0
F003C0
F003C0
F00780
F00780
700700
780F00
3C1E00
3FF800
0FE000
000000
000000
000000
000000
000000
000000
000000
000000
000000
ENDCHAR
STARTCHAR char80
ENCODING 80
SWIDTH 2070 0
DWIDTH 23 0
BBX 21 33 0 -9
BITMAP
000000
1FFF80
07FFF0
0F81F8
0F8078
0F8078
0F8078
0F0078
0F0078
0F00F0
1F03E0
1FFFC0
1FFE00
1E0000
1E0000
1E0000
3E0000
3E0000
3E0000
3C0000
3C0000
3C0000
FE0000
000000
000000
000000
000000
000000
000000
000000
000000
000000
000000
ENDCHAR
STARTCHAR char81
ENCODING 81
SWIDTH 2070 0
DWIDTH 23 0
BBX 19 33 1 -9
BITMAP
000000
000000
00FE00
03FF80
0F0780
1E03C0
1C01C0
3C01E0
3C01E0
7801E0
7801E0
7801E0
F001E0
F001E0
F001E0
F003C0
F1E3C0
F3F780
F7FF80
7E3F00
7C3F00
3C3F80
3FFF80
0FE380
000000
000000
000000
000000
000000
000000
000000
000000
000000
ENDCHAR
STARTCHAR char82
ENCODING 82
SWIDTH 2070 0
DWIDTH 23 0
BBX 21 33 0 -9
BITMAP
000000
1FFF80
07FFF0
0F81F8
0F8078
0F8078
0F8078
0F0078
0F0078
0F00F0
1F03E0
1FFFC0
1FFF00
1E0F00
1E0F00
1E0780
3E0780
3E0780
3E0780
3C03C0
3C03C0
3C03E0
FE07F0
000000
000000
000000
000000
000000
000000
000000
000000
000000
000000
ENDCHAR
STARTCHAR char83
ENCODING 83
SWIDTH 2070 0
DWIDTH 23 0
BBX 21 33 0 -9
BITMAP
000000
00FFE0
03FFF8
0F81F8
1E0078
3C0038
3C0000
3C0000
3C0000
3C0000
3FC000
0FFC00
03FF80
001FE0
0001E0
0001E0
0001E0
8001E0
C001E0
F003E0
F807C0
FFFF00
1FFC00
000000
000000
000000
000000
000000
000000
000000
000000
000000
000000
ENDCHAR
STARTCHAR char84
ENCODING 84
SWIDTH 2070 0
DWIDTH 23 0
BBX 19 33 3 -9
BITMAP
000000
FFFFE0
FFFFE0
81F060
01F020
01E000
01E000
01E000
03E000
03E000
03E000
03C000
03C000
03C000
07C000
07C000
07C000
07C000
078000
078000
0F8000
1F8000
000000
000000
000000
000000
000000
000000
000000
000000
000000
000000
000000
ENDCHAR
STARTCHAR char85
ENCODING 85
SWIDTH 2160 0
DWIDTH 24 0
BBX 20 33 3 -9
BITMAP
000000
FE07F0
7C03E0
7C03E0
7C03C0
7803C0
7803C0
7803C0
7807C0
F80780
F80780
F00780
F00780
F00780
F00F00
F00F00
F00F00
F01E00
F01E00
783C00
3C7800
3FE000
0F8000
000000
000000
000000
000000
000000
000000
000000
000000
000000
000000
ENDCHAR
STARTCHAR char86
ENCODING 86
SWIDTH 2160 0
DWIDTH 24 0
BBX 20 33 3 -9
BITMAP
000000
FC03F0
7801E0
7803E0
7803C0
780380
780780
380700
3C0F00
3C0E00
3C1E00
3C1C00
3C3C00
1C3800
1E7800
1E7000
1EF000
0FF000
0FC000
0FC000
078000
0F8000
0F8000
000000
000000
000000
000000
000000
000000
000000
000000
000000
000000
ENDCHAR
STARTCHAR char87
ENCODING 87
SWIDTH 2160 0
DWIDTH 24 0
BBX 20 33 3 -9
BITMAP
000000
F801F0
F801F0
F801F0
F841E0
F041E0
78E3C0
78E3C0
79E3C0
79E780
7BE780
7BEF00
7BEF00
7FFF00
7FFE00
7FFE00
7EFC00
7C7C00
7C7C00
7C7C00
787800
787800
F87C00
000000
000000
000000
000000
000000
000000
000000
000000
000000
000000
ENDCHAR
STARTCHAR char88
ENCODING 88
SWIDTH 2160 0
DWIDTH 24 0
BBX 23 33 0 -9
BITMAP
000000
1F807E
07807C
0780F0
03C1E0
01C1C0
01E3C0
00F780
007F00
007E00
007C00
003800
003800
007C00
00FC00
01FC00
03DE00
078F00
070700
0F0780
1E03C0
7C03C0
FC03F0
000000
000000
000000
000000
000000
000000
000000
000000
000000
000000
ENDCHAR
STARTCHAR char89
ENCODING 89
SWIDTH 2340 0
DWIDTH 26 0
BBX 22 33 3 -9
BITMAP
000000
FC00FC
780078
3C00F0
1E01E0
1E03C0
1E0780
0F0F00
079E00
07FC00
03F800
03F000
01E000
01E000
01E000
03E000
03E000
03E000
03E000
03C000
03C000
07C000
0FE000
000000
000000
000000
000000
000000
000000
000000
000000
000000
000000
ENDCHAR
STARTCHAR char90
ENCODING 90
SWIDTH 2070 0
DWIDTH 23 0
BBX 21 33 1 -9
BITMAP
000000
1FFFF8
1FFFF8
1000F8
0001F0
0003E0
0007C0
000F80
001F00
003E00
007C00
00F800
00F800
01F000
03E000
07C000
0F8000
1F0000
3E0000
7C0000
F80040
FFFFC0
FFFFC0
000000
000000
000000
000000
000000
000000
000000
000000
000000
000000
ENDCHAR
STARTCHAR char91
ENCODING 91
SWIDTH 2070 0
DWIDTH 23 0
BBX 10 33 6 -9
BITMAP
0000
0000
1FC0
1FC0
1E00
3C00
3C00
3C00
3C00
3C00
3C00
3C00
7800
7800
7800
7800
7800
7800
F000
F000
F000
FE00
FE00
0000
0000
0000
0000
0000
0000
0000
0000
0000
0000
ENDCHAR
STARTCHAR char92
ENCODING 92
SWIDTH 2070 0
DWIDTH 23 0
BBX 15 33 4 -9
BITMAP
0000
E000
F000
7800
3C00
3C00
3C00
1E00
0F00
0F00
0780
0780
03C0
03C0
01E0
01E0
00F0
0078
0078
0078
003C
001E
000E
0000
0000
0000
0000
0000
0000
0000
0000
0000
0000
ENDCHAR
STARTCHAR char93
ENCODING 93
SWIDTH 2070 0
DWIDTH 23 0
BBX 9 33 7 -9
BITMAP
0000
1F80
1F80
0780
0780
0780
0780
0F00
0F00
0F00
0F00
0F00
0F00
1F00
1E00
1E00
1E00
1E00
1E00
1E00
FC00
FC00
0000
0000
0000
0000
0000
0000
0000
0000
0000
0000
0000
ENDCHAR
STARTCHAR char95
ENCODING 95
SWIDTH 2070 0
DWIDTH 23 0
BBX 22 33 0 -9
BITMAP
000000
000000
000000
000000
000000
000000
000000
000000
000000
000000
000000
000000
000000
000000
000000
000000
000000
000000
000000
000000
000000
000000
FFFFFC
FFFFFC
000000
000000
000000
000000
000000
000000
000000
000000
000000
ENDCHAR
STARTCHAR char96
ENCODING 96
SWIDTH 2070 0
DWIDTH 23 0
BBX 4 33 11 -9
BITMAP
00
00
70
F0
F0
E0
70
30
00
00
00
00
00
00
00
00
00
00
00
00
00
00
00
00
00
00
00
00
00
00
00
00
00
ENDCHAR
STARTCHAR char97
ENCODING 97
SWIDTH 2070 0
DWIDTH 23 0
BBX 20 33 0 -9
BITMAP
000000
000000
000000
000000
000000
000000
000000
000000
000000
000000
03FF00
1FFFC0
3C07E0
7001F0
0000F0
07F9F0
1FFFF0
781FF0
7807E0
F003E0
F807E0
7FFEE0
1FFCE0
000000
000000
000000
000000
000000
000000
000000
000000
000000
000000
ENDCHAR
STARTCHAR char98
ENCODING 98
SWIDTH 2070 0
DWIDTH 23 0
BBX 20 33 0 -9
BITMAP
000000
1F0000
0F0000
1F0000
1E0000
1E0000
1E0000
1E0000
1E0000
3E0000
3E0000
3FFF00
3FFFC0
3F83E0
3E00F0
3C00F0
7C00F0
7C00F0
7800E0
7C01E0
7F07C0
7FFF80
FFFE00
000000
000000
000000
000000
000000
000000
000000
000000
000000
000000
ENDCHAR
STARTCHAR char99
ENCODING 99
SWIDTH 2070 0
DWIDTH 23 0
BBX 18 33 1 -9
BITMAP
000000
000000
000000
000000
000000
000000
000000
000000
000000
000000
000000
07FE00
1FFF80
3E07C0
7801C0
F00000
F00000
F00000
E00000
F003C0
7C0F80
3FFF00
1FF800
000000
000000
000000
000000
000000
000000
000000
000000
000000
000000
ENDCHAR
STARTCHAR char100
ENCODING 100
SWIDTH 2160 0
DWIDTH 24 0
BBX 23 33 0 -9
BITMAP
000000
00007E
00007C
00007C
00007C
000078
000078
000078
0000F8
0000F8
0000F8
03FEF8
0FFFF8
1F07F0
3C01F0
7801F0
7801F0
F001F0
7001F0
7803E0
3E0FE0
3FFFE0
0FFBE0
000000
000000
000000
000000
000000
000000
000000
000000
000000
000000
ENDCHAR
STARTCHAR char101
ENCODING 101
SWIDTH 2070 0
DWIDTH 23 0
BBX 21 33 0 -9
BITMAP
000000
000000
000000
000000
000000
000000
000000
000000
000000
000000
007E00
07FF80
1F03E0
3C00F0
380078
7FFFF8
7FFFF0
780000
F00000
780000
3E00F0
0FFFE0
01FF00
000000
000000
000000
000000
000000
000000
000000
000000
000000
000000
ENDCHAR
STARTCHAR char102
ENCODING 102
SWIDTH 2070 0
DWIDTH 23 0
BBX 20 33 2 -9
BITMAP
000000
003F80
00FFE0
01F1F0
03E0F0
03C0F0
07C0F0
0780F0
078000
078000
0F8000
FFFC00
FFFC00
0F0000
0F0000
0F0000
1F0000
1F0000
1F0000
1F0000
1E0000
1E0000
7F0000
000000
000000
000000
000000
000000
000000
000000
000000
000000
000000
ENDCHAR
STARTCHAR char103
ENCODING 103
SWIDTH 2340 0
DWIDTH 26 0
BBX 23 33 0 -9
BITMAP
000000
000000
000000
000000
000000
000000
000000
000000
000000
000000
000006
00000E
01FFFC
07FFE0
0781E0
0F00F0
0F01E0
0F01E0
0F01E0
1E01E0
0F03C0
0FFF80
1DFF00
1C0000
1C0000
1FFF00
3FFF80
7807C0
F00780
F00780
F00F80
FFFF00
3FFC00
ENDCHAR
STARTCHAR char104
ENCODING 104
SWIDTH 2070 0
DWIDTH 23 0
BBX 18 33 1 -9
BITMAP
000000
3F0000
1F0000
1E0000
1E0000
1E0000
1E0000
1E0000
1E0000
3E0000
3E0000
3EFC00
3DFF00
3F8780
3F03C0
7E03C0
7C03C0
7C03C0
7803C0
7803C0
7803C0
F807C0
F807C0
000000
000000
000000
000000
000000
000000
000000
000000
000000
000000
ENDCHAR
STARTCHAR char105
ENCODING 105
SWIDTH 2070 0
DWIDTH 23 0
BBX 7 33 6 -9
BITMAP
00
00
00
00
00
00
0E
1E
0E
00
00
7E
1E
3E
3C
3C
3C
3C
3C
3C
7C
7C
FE
00
00
00
00
00
00
00
00
00
00
ENDCHAR
STARTCHAR char106
ENCODING 106
SWIDTH 2070 0
DWIDTH 23 0
BBX 12 33 2 -9
BITMAP
0000
0000
0000
0000
0000
0000
00E0
00F0
00E0
0000
0000
03F0
01F0
01F0
01E0
01E0
01E0
03E0
03C0
03C0
03C0
03C0
03C0
C780
E780
FF00
7E00
0000
0000
0000
0000
0000
0000
ENDCHAR
STARTCHAR char107
ENCODING 107
SWIDTH 2070 0
DWIDTH 23 0
BBX 21 33 0 -9
BITMAP
000000
000000
1F0000
0F0000
0F0000
0F0000
0F0000
0F0000
0F0000
1F0000
1F0008
1E0038
1E01F8
1E0FE0
1E7F00
3FFE00
3FDE00
3F0F00
3C0780
3C03C0
3C01E0
F800E0
000000
000000
000000
000000
000000
000000
000000
000000
000000
000000
000000
ENDCHAR
STARTCHAR char108
ENCODING 108
SWIDTH 2070 0
DWIDTH 23 0
BBX 8 33 6 -9
BITMAP
00
00
1F
0F
0F
0F
0F
0F
1F
1F
1E
1E
1E
1E
1E
3E
3E
3E
3C
3C
3C
7C
FE
00
00
00
00
00
00
00
00
00
00
ENDCHAR
STARTCHAR char109
ENCODING 109
SWIDTH 2070 0
DWIDTH 23 0
BBX 19 33 0 -9
BITMAP
000000
000000
000000
000000
000000
000000
000000
000000
000000
000000
000000
3B8700
3FCFC0
3FFFE0
7EFDE0
7CF9E0
7CF9E0
7CF9E0
78F1E0
78F1E0
78F1E0
F9F3E0
F9F3E0
000000
000000
000000
000000
000000
000000
000000
000000
000000
000000
ENDCHAR
STARTCHAR char110
ENCODING 110
SWIDTH 2070 0
DWIDTH 23 0
BBX 19 33 0 -9
BITMAP
000000
000000
000000
000000
000000
000000
000000
000000
000000
000000
000000
3E7E00
1EFF80
1FC3C0
3F81E0
3F01E0
3E01E0
3E01E0
3C01E0
3C01E0
3C01E0
7C03E0
FC03E0
000000
000000
000000
000000
000000
000000
000000
000000
000000
000000
ENDCHAR
STARTCHAR char111
ENCODING 111
SWIDTH 2070 0
DWIDTH 23 0
BBX 19 33 1 -9
BITMAP
000000
000000
000000
000000
000000
000000
000000
000000
000000
000000
000000
07FE00
1FFF80
3E07C0
7801E0
7001E0
F001E0
F001E0
F001C0
F003C0
7C0F80
3FFF00
0FFC00
000000
000000
000000
000000
000000
000000
000000
000000
000000
000000
ENDCHAR
STARTCHAR char112
ENCODING 112
SWIDTH 2070 0
DWIDTH 23 0
BBX 21 33 0 -9
BITMAP
000000
000000
000000
000000
000000
000000
000000
000000
000000
000000
000000
1F1F80
0FFFE0
0FF1F0
0FC078
0F8038
1F8078
1F8078
1F8078
1F80F0
1FE3E0
1FFFC0
3E7F00
3E0000
3E0000
3C0000
3C0000
3C0000
3C0000
7C0000
FE0000
000000
000000
ENDCHAR
STARTCHAR char113
ENCODING 113
SWIDTH 2070 0
DWIDTH 23 0
BBX 20 33 1 -9
BITMAP
000000
000000
000000
000000
000000
000000
000000
000000
000000
000000
000000
03F9F0
1FFFE0
3E1FC0
7807C0
7003C0
F007C0
F007C0
F007C0
F00FC0
7C3F80
3FFF80
0FFF80
000F80
000F80
000F80
000F80
000F00
000F00
000F00
000F80
000000
000000
ENDCHAR
STARTCHAR char114
ENCODING 114
SWIDTH 2070 0
DWIDTH 23 0
BBX 20 33 0 -9
BITMAP
000000
000000
000000
000000
000000
000000
000000
000000
000000
000000
000000
000000
7E7F00
1EFFC0
1FC1E0
3F80F0
3F00F0
3E0000
3C0000
3C0000
3C0000
7C0000
FE0000
000000
000000
000000
000000
000000
000000
000000
000000
000000
000000
ENDCHAR
STARTCHAR char115
ENCODING 115
SWIDTH 2070 0
DWIDTH 23 0
BBX 19 33 1 -9
BITMAP
000000
000000
000000
000000
000000
000000
000000
000000
000000
000000
000000
0FFF00
3FFFC0
7801E0
7800E0
3F8000
0FF800
03FE00
003F80
E003C0
F003C0
7FFF80
1FFE00
000000
000000
000000
000000
000000
000000
000000
000000
000000
000000
ENDCHAR
STARTCHAR char116
ENCODING 116
SWIDTH 2070 0
DWIDTH 23 0
BBX 15 33 3 -9
BITMAP
0000
0000
0000
0000
0000
0000
0380
0780
0780
0780
0780
FFF8
FFF8
0F80
0F00
0F00
0F00
0F00
0F0E
0F1E
0F3E
0FFC
03F0
0000
0000
0000
0000
0000
0000
0000
0000
0000
0000
ENDCHAR
STARTCHAR char117
ENCODING 117
SWIDTH 2070 0
DWIDTH 23 0
BBX 19 33 2 -9
BITMAP
000000
000000
000000
000000
000000
000000
000000
000000
000000
000000
000000
FE0FE0
7C07C0
780780
780780
780780
780F80
780F80
780F80
780F80
781F00
3FFF00
0FEF80
000000
000000
000000
000000
000000
000000
000000
000000
000000
000000
ENDCHAR
STARTCHAR char118
ENCODING 118
SWIDTH 2070 0
DWIDTH 23 0
BBX 19 33 2 -9
BITMAP
000000
000000
000000
000000
000000
000000
000000
000000
000000
000000
000000
FC07E0
7C07C0
780780
3C0F00
1E1E00
1E3C00
1E3C00
0FF800
0FF000
07E000
03C000
0FE000
000000
000000
000000
000000
000000
000000
000000
000000
000000
000000
ENDCHAR
STARTCHAR char119
ENCODING 119
SWIDTH 2070 0
DWIDTH 23 0
BBX 18 33 2 -9
BITMAP
000000
000000
000000
000000
000000
000000
000000
000000
000000
000000
F9E7C0
F9E780
71C700
71C700
3BEE00
3BEE00
3FFE00
3FFC00
3EF800
3EF800
1C7000
3CF000
7CF800
000000
000000
000000
000000
000000
000000
000000
000000
000000
000000
ENDCHAR
STARTCHAR char120
ENCODING 120
SWIDTH 2070 0
DWIDTH 23 0
BBX 21 33 0 -9
BITMAP
000000
000000
000000
000000
000000
000000
000000
000000
000000
000000
000000
3F01F8
1F01E0
0F87C0
07CF80
03FF00
03FE00
03FE00
07FE00
0F9F00
1F0F80
3C07C0
FC07E0
000000
000000
000000
000000
000000
000000
000000
000000
000000
000000
ENDCHAR
STARTCHAR char121
ENCODING 121
SWIDTH 2070 0
DWIDTH 23 0
BBX 22 33 0 -9
BITMAP
000000
000000
000000
000000
000000
000000
000000
000000
000000
000000
000000
1FC1FC
0F80F0
0781E0
07C1E0
03C3C0
01E3C0
01F780
00FF80
00FE00
007E00
003C00
007C00
007800
00F000
01E000
03C000
078000
0F8000
9F0000
FC0000
000000
000000
ENDCHAR
STARTCHAR char122
ENCODING 122
SWIDTH 2070 0
DWIDTH 23 0
BBX 20 33 0 -9
BITMAP
000000
000000
000000
000000
000000
000000
000000
000000
000000
000000
000000
3FFFF0
3FFFF0
4001F0
0007C0
001F00
007C00
03E000
0F8000
3E0000
F80020
FFFFE0
FFFFC0
000000
000000
000000
000000
000000
000000
000000
000000
000000
000000
ENDCHAR
STARTCHAR char123
ENCODING 123
SWIDTH 2070 0
DWIDTH 23 0
BBX 13 33 4 -9
BITMAP
0000
0000
0078
01E0
03C0
0780
0700
0F00
0F00
0E00
1E00
3C00
7800
F000
3C00
1C00
3C00
3C00
3C00
3C00
1C00
1E00
0F00
07C0
0000
0000
0000
0000
0000
0000
0000
0000
0000
ENDCHAR
STARTCHAR char124
ENCODING 124
SWIDTH 2070 0
DWIDTH 23 0
BBX 5 33 8 -9
BITMAP
00
18
18
18
18
38
38
38
30
30
30
70
70
70
60
60
60
60
E0
E0
C0
C0
C0
00
00
00
00
00
00
00
00
00
00
ENDCHAR
STARTCHAR char125
ENCODING 125
SWIDTH 2070 0
DWIDTH 23 0
BBX 13 33 6 -9
BITMAP
0000
0000
1F00
03C0
01E0
01E0
01E0
01E0
01E0
00E0
00E0
00F0
0078
0078
01E0
01C0
01C0
03C0
0380
0780
0700
0F00
1E00
F800
0000
0000
0000
0000
0000
0000
0000
0000
0000
ENDCHAR
STARTCHAR char126
ENCODING 126
SWIDTH 2070 0
DWIDTH 23 0
BBX 19 33 2 -9
BITMAP
000000
000000
000000
000000
000000
000000
0E0000
3F8000
7FC000
E0E020
80E0E0
007FC0
003F80
000E00
000000
000000
000000
000000
000000
000000
000000
000000
000000
000000
000000
000000
000000
000000
000000
000000
000000
000000
000000
ENDCHAR
STARTCHAR char127
ENCODING 127
SWIDTH 2070 0
DWIDTH 23 0
BBX 21 33 1 -9
BITMAP
000000
000000
0001F8
0003F8
000738
000E38
000E00
001C00
001C00
001C00
003800
003800
007000
007000
007000
00E000
00E000
01C000
01C000
01C000
038000
C78000
EF0000
FE0000
7C0000
000000
000000
000000
000000
000000
000000
000000
000000
ENDCHAR
ENDFONT
